<?xml version="1.0" encoding="UTF-8"?>
<svg xmlns="http://www.w3.org/2000/svg" xmlns:xlink="http://www.w3.org/1999/xlink" width="24px" height="24px" viewBox="0 0 20 20" version="1.1">
<defs>
<clipPath id="clip1">
  <path d="M 0.324219 0 L 17.257812 0 L 17.257812 19.355469 L 0.324219 19.355469 Z M 0.324219 0 "/>
</clipPath>
</defs>
<g id="surface1">
<path style=" stroke:none;fill-rule:nonzero;fill:rgb(70.980392%,9.411765%,9.019608%);fill-opacity:1;" d="M 6.976562 9.292969 C 6.535156 9.292969 6.199219 9.625 6.199219 10.0625 L 6.199219 14.753906 C 6.199219 15.1875 6.535156 15.519531 6.976562 15.519531 C 7.417969 15.519531 7.753906 15.1875 7.753906 14.753906 L 7.753906 10.0625 C 7.753906 9.625 7.417969 9.292969 6.976562 9.292969 Z M 6.976562 9.292969 "/>
<path style=" stroke:none;fill-rule:nonzero;fill:rgb(70.980392%,9.411765%,9.019608%);fill-opacity:1;" d="M 10.605469 9.292969 C 10.164062 9.292969 9.824219 9.625 9.824219 10.0625 L 9.824219 14.753906 C 9.824219 15.1875 10.164062 15.519531 10.605469 15.519531 C 11.042969 15.519531 11.378906 15.1875 11.378906 14.753906 L 11.378906 10.0625 C 11.378906 9.625 11.042969 9.292969 10.605469 9.292969 Z M 10.605469 9.292969 "/>
<g clip-path="url(#clip1)" clip-rule="nonzero">
<path style=" stroke:none;fill-rule:nonzero;fill:rgb(70.980392%,9.411765%,9.019608%);fill-opacity:1;" d="M 2.238281 7.574219 L 2.238281 17.289062 C 2.238281 18.417969 3.171875 19.339844 4.308594 19.339844 L 13.269531 19.339844 C 14.410156 19.339844 15.339844 18.417969 15.339844 17.289062 L 15.339844 7.574219 C 16.429688 7.472656 17.257812 6.601562 17.257812 5.527344 L 17.257812 4.5 C 17.257812 3.371094 16.324219 2.449219 15.1875 2.449219 L 12.234375 2.449219 L 12.234375 2.066406 C 12.234375 0.9375 11.300781 0.015625 10.164062 0.015625 L 7.417969 0.015625 C 6.277344 0.015625 5.347656 0.9375 5.347656 2.066406 L 5.347656 2.449219 L 2.394531 2.449219 C 1.253906 2.449219 0.324219 3.371094 0.324219 4.5 L 0.324219 5.527344 C 0.324219 6.601562 1.152344 7.472656 2.238281 7.574219 Z M 13.269531 17.800781 L 4.308594 17.800781 C 4.027344 17.800781 3.792969 17.570312 3.792969 17.289062 L 3.792969 7.574219 L 13.789062 7.574219 L 13.789062 17.289062 C 13.789062 17.570312 13.554688 17.800781 13.269531 17.800781 Z M 6.902344 2.066406 C 6.902344 1.785156 7.132812 1.550781 7.417969 1.550781 L 10.164062 1.550781 C 10.449219 1.550781 10.679688 1.785156 10.679688 2.066406 L 10.679688 2.449219 L 6.902344 2.449219 Z M 1.875 4.5 C 1.875 4.21875 2.109375 3.988281 2.394531 3.988281 L 15.1875 3.988281 C 15.472656 3.988281 15.703125 4.21875 15.703125 4.5 L 15.703125 5.527344 C 15.703125 5.808594 15.472656 6.039062 15.1875 6.039062 L 2.394531 6.039062 C 2.109375 6.039062 1.875 5.808594 1.875 5.527344 Z M 1.875 4.5 "/>
</g>
</g>
</svg>
