<svg xmlns="http://www.w3.org/2000/svg" xmlns:xlink="http://www.w3.org/1999/xlink" width="150" zoomAndPan="magnify" viewBox="0 0 112.5 112.499997" height="150" preserveAspectRatio="xMidYMid meet" version="1.0"><defs><clipPath id="8912a57b43"><path d="M 0 0 L 112.003906 0 L 112.003906 112.003906 L 0 112.003906 Z M 0 0 " clip-rule="nonzero"/></clipPath><clipPath id="7f276e42f2"><path d="M 56.765625 -47.816406 L 160.449219 56.386719 L 55.714844 160.601562 L -47.96875 56.398438 Z M 56.765625 -47.816406 " clip-rule="nonzero"/></clipPath><clipPath id="8c1775b7c1"><path d="M 56.765625 -47.816406 L 160.449219 56.386719 L 55.714844 160.601562 L -47.96875 56.398438 Z M 56.765625 -47.816406 " clip-rule="nonzero"/></clipPath></defs><g clip-path="url(#8912a57b43)"><g clip-path="url(#7f276e42f2)"><g clip-path="url(#8c1775b7c1)"><path fill="#ffffff" d="M 108.175781 89.726562 L 75.296875 56.683594 L 108.339844 23.804688 C 108.957031 23.1875 109.511719 22.519531 110 21.792969 C 110.484375 21.070312 110.898438 20.304688 111.234375 19.496094 C 111.570312 18.691406 111.824219 17.859375 111.996094 17.003906 C 112.167969 16.148438 112.257812 15.285156 112.257812 14.410156 C 112.261719 13.539062 112.175781 12.671875 112.007812 11.816406 C 111.839844 10.960938 111.589844 10.128906 111.257812 9.320312 C 110.925781 8.511719 110.519531 7.746094 110.035156 7.019531 C 109.554688 6.289062 109.003906 5.617188 108.386719 5 C 107.773438 4.378906 107.101562 3.828125 106.375 3.339844 C 105.652344 2.851562 104.886719 2.441406 104.082031 2.105469 C 103.273438 1.769531 102.445312 1.515625 101.585938 1.34375 C 100.730469 1.171875 99.867188 1.082031 98.992188 1.082031 C 98.121094 1.078125 97.253906 1.160156 96.398438 1.328125 C 95.542969 1.5 94.710938 1.75 93.902344 2.082031 C 93.09375 2.414062 92.328125 2.820312 91.601562 3.304688 C 90.871094 3.789062 90.199219 4.335938 89.582031 4.953125 L 56.535156 37.835938 L 23.664062 4.800781 C 23.046875 4.179688 22.378906 3.625 21.652344 3.140625 C 20.925781 2.652344 20.160156 2.238281 19.355469 1.902344 C 18.550781 1.566406 17.71875 1.308594 16.863281 1.136719 C 16.003906 0.964844 15.140625 0.875 14.265625 0.875 C 13.394531 0.871094 12.527344 0.953125 11.671875 1.121094 C 10.8125 1.289062 9.980469 1.539062 9.171875 1.871094 C 8.363281 2.203125 7.59375 2.613281 6.867188 3.097656 C 6.140625 3.578125 5.464844 4.128906 4.847656 4.746094 C 4.226562 5.363281 3.675781 6.035156 3.1875 6.757812 C 2.699219 7.484375 2.289062 8.25 1.953125 9.054688 C 1.617188 9.863281 1.363281 10.695312 1.1875 11.550781 C 1.015625 12.40625 0.929688 13.273438 0.929688 14.148438 C 0.925781 15.019531 1.007812 15.886719 1.179688 16.742188 C 1.347656 17.601562 1.597656 18.433594 1.929688 19.242188 C 2.265625 20.046875 2.671875 20.816406 3.15625 21.542969 C 3.640625 22.269531 4.191406 22.941406 4.808594 23.5625 L 37.679688 56.597656 L 4.644531 89.472656 C 4.023438 90.089844 3.472656 90.757812 2.984375 91.484375 C 2.496094 92.207031 2.085938 92.972656 1.75 93.78125 C 1.414062 94.585938 1.160156 95.417969 0.984375 96.273438 C 0.8125 97.128906 0.726562 97.992188 0.722656 98.867188 C 0.722656 99.738281 0.804688 100.605469 0.972656 101.460938 C 1.140625 102.320312 1.390625 103.152344 1.722656 103.957031 C 2.054688 104.765625 2.464844 105.535156 2.945312 106.261719 C 3.429688 106.988281 3.980469 107.660156 4.59375 108.28125 C 5.210938 108.898438 5.882812 109.453125 6.605469 109.9375 C 7.332031 110.425781 8.097656 110.835938 8.902344 111.171875 C 9.707031 111.507812 10.539062 111.761719 11.394531 111.933594 C 12.25 112.109375 13.117188 112.195312 13.988281 112.199219 C 14.863281 112.199219 15.726562 112.117188 16.582031 111.949219 C 17.441406 111.78125 18.273438 111.53125 19.082031 111.195312 C 19.886719 110.863281 20.65625 110.457031 21.382812 109.972656 C 22.109375 109.492188 22.78125 108.941406 23.402344 108.324219 L 56.445312 75.445312 L 89.320312 108.488281 C 89.9375 109.105469 90.605469 109.660156 91.332031 110.148438 C 92.058594 110.632812 92.820312 111.046875 93.628906 111.382812 C 94.433594 111.71875 95.265625 111.972656 96.121094 112.144531 C 96.976562 112.316406 97.839844 112.402344 98.714844 112.40625 C 99.585938 112.40625 100.453125 112.324219 101.308594 112.15625 C 102.167969 111.988281 103 111.738281 103.804688 111.40625 C 104.613281 111.074219 105.382812 110.664062 106.109375 110.183594 C 106.835938 109.699219 107.507812 109.148438 108.128906 108.535156 C 108.746094 107.917969 109.300781 107.246094 109.785156 106.523438 C 110.273438 105.796875 110.683594 105.03125 111.023438 104.226562 C 111.359375 103.421875 111.613281 102.589844 111.785156 101.734375 C 111.957031 100.878906 112.042969 100.011719 112.046875 99.140625 C 112.050781 98.265625 111.964844 97.402344 111.796875 96.542969 C 111.628906 95.6875 111.378906 94.855469 111.046875 94.046875 C 110.714844 93.238281 110.308594 92.472656 109.824219 91.746094 C 109.339844 91.019531 108.792969 90.34375 108.175781 89.726562 Z M 108.175781 89.726562 " fill-opacity="1" fill-rule="nonzero"/></g></g></g></svg>