<?xml version="1.0" encoding="utf-8"?>
<!-- Generator: Adobe Illustrator 24.3.0, SVG Export Plug-In . SVG Version: 6.00 Build 0)  -->
<svg version="1.1" id="Layer_1" xmlns="http://www.w3.org/2000/svg" xmlns:xlink="http://www.w3.org/1999/xlink" x="0px" y="0px"
	 viewBox="0 0 200 200" enable-background="new 0 0 200 200" xml:space="preserve">
<path fill="#282828" d="M92.232,121.498c-1.1,0-2-0.9-2-2v-40.6c0-3,2.4-5.4,5.4-5.4h26.3c1.1,0,2,0.9,2,2s-0.9,2-2,2h-26.3
	c-0.8,0-1.4,0.6-1.4,1.4v40.6C94.232,120.598,93.332,121.498,92.232,121.498z"/>
<path fill="#282828" d="M123.032,83.098l9.1-5.2c1.8-1.1,1.8-3.7,0-4.7l-9.1-5.2c-1.8-1.1-4.1,0.3-4.1,2.4v10.5
	C118.932,82.798,121.232,84.098,123.032,83.098z"/>
<path fill="#282828" d="M119.432,132.498h-45.4c-4,0-7.3-3.3-7.3-7.3v-45.4c0-4,3.3-7.3,7.3-7.3h7.1c1.1,0,2,0.9,2,2s-0.9,2-2,2
	h-7.1c-1.8,0-3.3,1.5-3.3,3.3v45.4c0,1.8,1.5,3.3,3.3,3.3h45.4c1.8,0,3.3-1.5,3.3-3.3v-27.7c0-1.1,0.9-2,2-2s2,0.9,2,2v27.7
	C126.732,129.198,123.432,132.498,119.432,132.498z"/>
</svg>
