<svg xmlns="http://www.w3.org/2000/svg" xmlns:xlink="http://www.w3.org/1999/xlink" width="40" zoomAndPan="magnify" viewBox="0 0 30 30.000001" height="40" preserveAspectRatio="xMidYMid meet" version="1.0"><defs><clipPath id="cfab63e0e1"><path d="M 9.644531 8.335938 L 20.535156 8.335938 L 20.535156 20.675781 L 9.644531 20.675781 Z M 9.644531 8.335938 " clip-rule="nonzero"/></clipPath></defs><path fill="#b51817" d="M 13.925781 14.261719 C 13.640625 14.261719 13.425781 14.472656 13.425781 14.75 L 13.425781 17.742188 C 13.425781 18.023438 13.640625 18.234375 13.925781 18.234375 C 14.207031 18.234375 14.425781 18.023438 14.425781 17.742188 L 14.425781 14.75 C 14.425781 14.472656 14.207031 14.261719 13.925781 14.261719 Z M 13.925781 14.261719 " fill-opacity="1" fill-rule="nonzero"/><path fill="#b51817" d="M 16.253906 14.261719 C 15.972656 14.261719 15.757812 14.472656 15.757812 14.75 L 15.757812 17.742188 C 15.757812 18.023438 15.972656 18.234375 16.253906 18.234375 C 16.539062 18.234375 16.753906 18.023438 16.753906 17.742188 L 16.753906 14.75 C 16.753906 14.472656 16.539062 14.261719 16.253906 14.261719 Z M 16.253906 14.261719 " fill-opacity="1" fill-rule="nonzero"/><g clip-path="url(#cfab63e0e1)"><path fill="#b51817" d="M 10.878906 13.164062 L 10.878906 19.363281 C 10.878906 20.082031 11.476562 20.671875 12.210938 20.671875 L 17.96875 20.671875 C 18.703125 20.671875 19.300781 20.082031 19.300781 19.363281 L 19.300781 13.164062 C 20 13.097656 20.535156 12.542969 20.535156 11.855469 L 20.535156 11.203125 C 20.535156 10.480469 19.933594 9.894531 19.203125 9.894531 L 17.304688 9.894531 L 17.304688 9.648438 C 17.304688 8.929688 16.703125 8.339844 15.972656 8.339844 L 14.207031 8.339844 C 13.476562 8.339844 12.875 8.929688 12.875 9.648438 L 12.875 9.894531 L 10.976562 9.894531 C 10.246094 9.894531 9.644531 10.480469 9.644531 11.203125 L 9.644531 11.855469 C 9.644531 12.542969 10.179688 13.097656 10.878906 13.164062 Z M 17.96875 19.691406 L 12.210938 19.691406 C 12.027344 19.691406 11.878906 19.542969 11.878906 19.363281 L 11.878906 13.164062 L 18.304688 13.164062 L 18.304688 19.363281 C 18.304688 19.542969 18.152344 19.691406 17.96875 19.691406 Z M 13.875 9.648438 C 13.875 9.46875 14.023438 9.320312 14.207031 9.320312 L 15.972656 9.320312 C 16.15625 9.320312 16.304688 9.46875 16.304688 9.648438 L 16.304688 9.894531 L 13.875 9.894531 Z M 10.644531 11.203125 C 10.644531 11.023438 10.796875 10.875 10.976562 10.875 L 19.203125 10.875 C 19.386719 10.875 19.535156 11.023438 19.535156 11.203125 L 19.535156 11.855469 C 19.535156 12.035156 19.386719 12.183594 19.203125 12.183594 L 10.976562 12.183594 C 10.796875 12.183594 10.644531 12.035156 10.644531 11.855469 Z M 10.644531 11.203125 " fill-opacity="1" fill-rule="nonzero"/></g></svg>