<svg xmlns="http://www.w3.org/2000/svg" xmlns:xlink="http://www.w3.org/1999/xlink" width="200" zoomAndPan="magnify" viewBox="0 0 150 149.999998" height="200" preserveAspectRatio="xMidYMid meet" version="1.0"><defs><clipPath id="454a3bdd52"><path d="M 2.183594 2.183594 L 147.816406 2.183594 L 147.816406 147.816406 L 2.183594 147.816406 Z M 2.183594 2.183594 " clip-rule="nonzero"/></clipPath><clipPath id="9fb1263146"><path d="M 75 2.183594 C 34.785156 2.183594 2.183594 34.785156 2.183594 75 C 2.183594 115.214844 34.785156 147.816406 75 147.816406 C 115.214844 147.816406 147.816406 115.214844 147.816406 75 C 147.816406 34.785156 115.214844 2.183594 75 2.183594 " clip-rule="nonzero"/></clipPath></defs><g clip-path="url(#454a3bdd52)"><g clip-path="url(#9fb1263146)"><path fill="#51526e" d="M 2.183594 2.183594 L 147.816406 2.183594 L 147.816406 147.816406 L 2.183594 147.816406 Z M 2.183594 2.183594 " fill-opacity="1" fill-rule="nonzero"/></g></g><path fill="#767a93" d="M 100.433594 79.566406 L 49.566406 79.566406 C 47.085938 79.566406 45 77.476562 45 75 C 45 72.523438 47.085938 70.433594 49.566406 70.433594 L 100.433594 70.433594 C 102.914062 70.433594 105 72.523438 105 75 C 105 77.476562 102.914062 79.566406 100.433594 79.566406 Z M 100.433594 79.566406 " fill-opacity="1" fill-rule="nonzero"/><path fill="#767a93" d="M 70.433594 100.433594 L 70.433594 49.566406 C 70.433594 47.085938 72.523438 45 75 45 C 77.476562 45 79.566406 47.085938 79.566406 49.566406 L 79.566406 100.433594 C 79.566406 102.914062 77.476562 105 75 105 C 72.523438 105 70.433594 102.914062 70.433594 100.433594 Z M 70.433594 100.433594 " fill-opacity="1" fill-rule="nonzero"/></svg>